<svg width="15" height="16" viewBox="0 0 15 16" fill="none" xmlns="http://www.w3.org/2000/svg">
<path d="M0.782462 1.28242C0.311058 1.75382 0.340203 2.5433 0.829771 3.03287L5.74953 7.95262L1.08871 12.6134C0.624905 13.0772 0.646448 13.8743 1.13602 14.3639C1.62558 14.8535 2.42266 14.875 2.88646 14.4112L7.54729 9.75038L12.467 14.6701C12.9566 15.1597 13.7461 15.1889 14.2175 14.7174C14.6813 14.2536 14.6598 13.4566 14.1702 12.967L9.25043 8.04724L13.9112 3.38642C14.375 2.92262 14.3535 2.12554 13.8639 1.63597C13.3744 1.1464 12.5773 1.12486 12.1135 1.58866L7.45267 6.24948L2.53291 1.32973C2.04334 0.84016 1.24626 0.818617 0.782462 1.28242Z" fill="#1A1B22"/>
</svg>
