<svg width="15" height="16" viewBox="0 0 15 16" fill="none" xmlns="http://www.w3.org/2000/svg">
<path d="M0.782523 1.28242C0.311119 1.75382 0.340264 2.5433 0.829832 3.03287L5.74959 7.95262L1.08877 12.6134C0.624966 13.0772 0.646509 13.8743 1.13608 14.3639C1.62564 14.8535 2.42272 14.875 2.88653 14.4112L7.54735 9.75038L12.4671 14.6701C12.9567 15.1597 13.7461 15.1889 14.2176 14.7174C14.6814 14.2536 14.6598 13.4566 14.1702 12.967L9.25049 8.04724L13.9113 3.38642C14.3751 2.92262 14.3536 2.12554 13.864 1.63597C13.3744 1.1464 12.5774 1.12486 12.1136 1.58866L7.45273 6.24948L2.53297 1.32973C2.0434 0.84016 1.24632 0.818617 0.782523 1.28242Z" fill="white"/>
</svg>
